<mxfile host="app.diagrams.net" agent="Mozilla/5.0 (Windows NT 10.0; Win64; x64) AppleWebKit/537.36 (KHTML, like Gecko) Chrome/131.0.0.0 Safari/537.36" version="25.0.3">
  <diagram id="C5RBs43oDa-KdzZeNtuy" name="Page-1">
    <mxGraphModel dx="3827" dy="1443" grid="1" gridSize="10" guides="1" tooltips="1" connect="1" arrows="1" fold="1" page="1" pageScale="1" pageWidth="827" pageHeight="1169" background="#F57B00" math="0" shadow="0">
      <root>
        <mxCell id="WIyWlLk6GJQsqaUBKTNV-0" />
        <mxCell id="WIyWlLk6GJQsqaUBKTNV-1" parent="WIyWlLk6GJQsqaUBKTNV-0" />
        <mxCell id="WIyWlLk6GJQsqaUBKTNV-2" value="" style="rounded=0;html=1;jettySize=auto;orthogonalLoop=1;fontSize=11;endArrow=block;endFill=0;endSize=8;strokeWidth=1;shadow=0;labelBackgroundColor=none;edgeStyle=orthogonalEdgeStyle;" parent="WIyWlLk6GJQsqaUBKTNV-1" source="WIyWlLk6GJQsqaUBKTNV-3" target="WIyWlLk6GJQsqaUBKTNV-6" edge="1">
          <mxGeometry relative="1" as="geometry" />
        </mxCell>
        <mxCell id="LgwAgNWRiK_FED9tSkLz-9" value="" style="edgeStyle=orthogonalEdgeStyle;rounded=0;orthogonalLoop=1;jettySize=auto;html=1;" edge="1" parent="WIyWlLk6GJQsqaUBKTNV-1" source="WIyWlLk6GJQsqaUBKTNV-3" target="LgwAgNWRiK_FED9tSkLz-8">
          <mxGeometry relative="1" as="geometry" />
        </mxCell>
        <mxCell id="WIyWlLk6GJQsqaUBKTNV-3" value="&lt;font style=&quot;vertical-align: inherit;&quot;&gt;&lt;font style=&quot;vertical-align: inherit;&quot;&gt;comparison of development metodologies&lt;/font&gt;&lt;/font&gt;" style="rounded=1;whiteSpace=wrap;html=1;fontSize=12;glass=0;strokeWidth=1;shadow=0;fillColor=#d80073;fontColor=#ffffff;strokeColor=#A50040;" parent="WIyWlLk6GJQsqaUBKTNV-1" vertex="1">
          <mxGeometry x="160" y="80" width="120" height="40" as="geometry" />
        </mxCell>
        <mxCell id="WIyWlLk6GJQsqaUBKTNV-4" value="Yes" style="rounded=0;html=1;jettySize=auto;orthogonalLoop=1;fontSize=11;endArrow=block;endFill=0;endSize=8;strokeWidth=1;shadow=0;labelBackgroundColor=none;edgeStyle=orthogonalEdgeStyle;" parent="WIyWlLk6GJQsqaUBKTNV-1" source="WIyWlLk6GJQsqaUBKTNV-6" target="WIyWlLk6GJQsqaUBKTNV-10" edge="1">
          <mxGeometry y="20" relative="1" as="geometry">
            <mxPoint as="offset" />
          </mxGeometry>
        </mxCell>
        <mxCell id="WIyWlLk6GJQsqaUBKTNV-5" value="" style="edgeStyle=orthogonalEdgeStyle;rounded=0;html=1;jettySize=auto;orthogonalLoop=1;fontSize=11;endArrow=block;endFill=0;endSize=8;strokeWidth=1;shadow=0;labelBackgroundColor=none;" parent="WIyWlLk6GJQsqaUBKTNV-1" edge="1">
          <mxGeometry y="10" relative="1" as="geometry">
            <mxPoint as="offset" />
            <mxPoint x="272" y="210" as="sourcePoint" />
            <mxPoint x="322" y="210" as="targetPoint" />
          </mxGeometry>
        </mxCell>
        <mxCell id="iAn_kZOKSKMiU8ketqMo-1" value="" style="edgeStyle=orthogonalEdgeStyle;rounded=0;orthogonalLoop=1;jettySize=auto;html=1;" parent="WIyWlLk6GJQsqaUBKTNV-1" source="WIyWlLk6GJQsqaUBKTNV-6" target="iAn_kZOKSKMiU8ketqMo-0" edge="1">
          <mxGeometry relative="1" as="geometry" />
        </mxCell>
        <mxCell id="iAn_kZOKSKMiU8ketqMo-22" value="" style="edgeStyle=orthogonalEdgeStyle;rounded=0;orthogonalLoop=1;jettySize=auto;html=1;" parent="WIyWlLk6GJQsqaUBKTNV-1" edge="1">
          <mxGeometry relative="1" as="geometry">
            <mxPoint x="323" y="210" as="sourcePoint" />
            <mxPoint x="556" y="210" as="targetPoint" />
          </mxGeometry>
        </mxCell>
        <mxCell id="WIyWlLk6GJQsqaUBKTNV-6" value="&lt;font style=&quot;vertical-align: inherit;&quot;&gt;&lt;font style=&quot;vertical-align: inherit;&quot;&gt;Аgile&lt;/font&gt;&lt;/font&gt;" style="rhombus;whiteSpace=wrap;html=1;shadow=0;fontFamily=Helvetica;fontSize=12;align=center;strokeWidth=1;spacing=6;spacingTop=-4;fillColor=#60a917;fontColor=#ffffff;strokeColor=#2D7600;" parent="WIyWlLk6GJQsqaUBKTNV-1" vertex="1">
          <mxGeometry x="170" y="170" width="100" height="80" as="geometry" />
        </mxCell>
        <mxCell id="WIyWlLk6GJQsqaUBKTNV-8" value="No" style="rounded=0;html=1;jettySize=auto;orthogonalLoop=1;fontSize=11;endArrow=block;endFill=0;endSize=8;strokeWidth=1;shadow=0;labelBackgroundColor=none;edgeStyle=orthogonalEdgeStyle;" parent="WIyWlLk6GJQsqaUBKTNV-1" source="WIyWlLk6GJQsqaUBKTNV-10" target="WIyWlLk6GJQsqaUBKTNV-11" edge="1">
          <mxGeometry x="0.3333" y="20" relative="1" as="geometry">
            <mxPoint as="offset" />
          </mxGeometry>
        </mxCell>
        <mxCell id="WIyWlLk6GJQsqaUBKTNV-9" value="Yes" style="edgeStyle=orthogonalEdgeStyle;rounded=0;html=1;jettySize=auto;orthogonalLoop=1;fontSize=11;endArrow=block;endFill=0;endSize=8;strokeWidth=1;shadow=0;labelBackgroundColor=none;" parent="WIyWlLk6GJQsqaUBKTNV-1" source="WIyWlLk6GJQsqaUBKTNV-10" target="WIyWlLk6GJQsqaUBKTNV-12" edge="1">
          <mxGeometry y="10" relative="1" as="geometry">
            <mxPoint as="offset" />
          </mxGeometry>
        </mxCell>
        <mxCell id="WIyWlLk6GJQsqaUBKTNV-10" value="&lt;font style=&quot;vertical-align: inherit;&quot;&gt;&lt;/font&gt;&lt;font style=&quot;vertical-align: inherit;&quot;&gt;&lt;font style=&quot;vertical-align: inherit;&quot;&gt;планування&lt;/font&gt;&lt;/font&gt;&lt;div&gt;&lt;font style=&quot;vertical-align: inherit;&quot;&gt;&lt;font style=&quot;vertical-align: inherit;&quot;&gt;&lt;font style=&quot;vertical-align: inherit;&quot;&gt;&lt;font style=&quot;vertical-align: inherit;&quot;&gt;спринту&lt;/font&gt;&lt;/font&gt;&lt;/font&gt;&lt;/font&gt;&lt;/div&gt;" style="rhombus;whiteSpace=wrap;html=1;shadow=0;fontFamily=Helvetica;fontSize=12;align=center;strokeWidth=1;spacing=6;spacingTop=-4;fillColor=#0050ef;fontColor=#ffffff;strokeColor=#001DBC;" parent="WIyWlLk6GJQsqaUBKTNV-1" vertex="1">
          <mxGeometry x="170" y="290" width="100" height="80" as="geometry" />
        </mxCell>
        <mxCell id="iAn_kZOKSKMiU8ketqMo-3" value="" style="edgeStyle=orthogonalEdgeStyle;rounded=0;orthogonalLoop=1;jettySize=auto;html=1;" parent="WIyWlLk6GJQsqaUBKTNV-1" source="WIyWlLk6GJQsqaUBKTNV-11" target="iAn_kZOKSKMiU8ketqMo-2" edge="1">
          <mxGeometry relative="1" as="geometry" />
        </mxCell>
        <mxCell id="iAn_kZOKSKMiU8ketqMo-11" value="" style="edgeStyle=orthogonalEdgeStyle;rounded=0;orthogonalLoop=1;jettySize=auto;html=1;" parent="WIyWlLk6GJQsqaUBKTNV-1" source="WIyWlLk6GJQsqaUBKTNV-11" target="iAn_kZOKSKMiU8ketqMo-10" edge="1">
          <mxGeometry relative="1" as="geometry" />
        </mxCell>
        <mxCell id="WIyWlLk6GJQsqaUBKTNV-11" value="&lt;font style=&quot;vertical-align: inherit;&quot;&gt;&lt;font style=&quot;vertical-align: inherit;&quot;&gt;Виконання спринту&lt;/font&gt;&lt;/font&gt;" style="rounded=1;whiteSpace=wrap;html=1;fontSize=12;glass=0;strokeWidth=1;shadow=0;fillColor=#0050ef;fontColor=#ffffff;strokeColor=#001DBC;" parent="WIyWlLk6GJQsqaUBKTNV-1" vertex="1">
          <mxGeometry x="160" y="430" width="120" height="40" as="geometry" />
        </mxCell>
        <mxCell id="WIyWlLk6GJQsqaUBKTNV-12" value="&lt;font style=&quot;vertical-align: inherit;&quot;&gt;&lt;font style=&quot;vertical-align: inherit;&quot;&gt;Визначення завдань на спринт&lt;/font&gt;&lt;/font&gt;" style="rounded=1;whiteSpace=wrap;html=1;fontSize=12;glass=0;strokeWidth=1;shadow=0;fillColor=#0050ef;fontColor=#ffffff;strokeColor=#001DBC;" parent="WIyWlLk6GJQsqaUBKTNV-1" vertex="1">
          <mxGeometry x="320" y="310" width="120" height="40" as="geometry" />
        </mxCell>
        <mxCell id="iAn_kZOKSKMiU8ketqMo-13" value="" style="edgeStyle=orthogonalEdgeStyle;rounded=0;orthogonalLoop=1;jettySize=auto;html=1;" parent="WIyWlLk6GJQsqaUBKTNV-1" source="iAn_kZOKSKMiU8ketqMo-0" target="iAn_kZOKSKMiU8ketqMo-12" edge="1">
          <mxGeometry relative="1" as="geometry" />
        </mxCell>
        <mxCell id="iAn_kZOKSKMiU8ketqMo-0" value="&lt;font style=&quot;vertical-align: inherit;&quot;&gt;&lt;font style=&quot;vertical-align: inherit;&quot;&gt;Недоліки&lt;/font&gt;&lt;/font&gt;" style="whiteSpace=wrap;html=1;shadow=0;strokeWidth=1;spacing=6;spacingTop=-4;fillColor=#0050ef;fontColor=#ffffff;strokeColor=#001DBC;" parent="WIyWlLk6GJQsqaUBKTNV-1" vertex="1">
          <mxGeometry x="-20" y="180" width="120" height="60" as="geometry" />
        </mxCell>
        <mxCell id="iAn_kZOKSKMiU8ketqMo-5" value="" style="edgeStyle=orthogonalEdgeStyle;rounded=0;orthogonalLoop=1;jettySize=auto;html=1;" parent="WIyWlLk6GJQsqaUBKTNV-1" source="iAn_kZOKSKMiU8ketqMo-2" target="iAn_kZOKSKMiU8ketqMo-4" edge="1">
          <mxGeometry relative="1" as="geometry" />
        </mxCell>
        <mxCell id="iAn_kZOKSKMiU8ketqMo-9" value="" style="edgeStyle=orthogonalEdgeStyle;rounded=0;orthogonalLoop=1;jettySize=auto;html=1;" parent="WIyWlLk6GJQsqaUBKTNV-1" source="iAn_kZOKSKMiU8ketqMo-2" target="iAn_kZOKSKMiU8ketqMo-8" edge="1">
          <mxGeometry relative="1" as="geometry" />
        </mxCell>
        <mxCell id="iAn_kZOKSKMiU8ketqMo-2" value="&lt;font style=&quot;vertical-align: inherit;&quot;&gt;&lt;font style=&quot;vertical-align: inherit;&quot;&gt;огляд&lt;/font&gt;&lt;/font&gt;" style="whiteSpace=wrap;html=1;rounded=1;glass=0;strokeWidth=1;shadow=0;fillColor=#0050ef;strokeColor=#001DBC;fontColor=#ffffff;" parent="WIyWlLk6GJQsqaUBKTNV-1" vertex="1">
          <mxGeometry x="160" y="540" width="120" height="60" as="geometry" />
        </mxCell>
        <mxCell id="iAn_kZOKSKMiU8ketqMo-7" value="" style="edgeStyle=orthogonalEdgeStyle;rounded=0;orthogonalLoop=1;jettySize=auto;html=1;" parent="WIyWlLk6GJQsqaUBKTNV-1" source="iAn_kZOKSKMiU8ketqMo-4" target="iAn_kZOKSKMiU8ketqMo-6" edge="1">
          <mxGeometry relative="1" as="geometry" />
        </mxCell>
        <mxCell id="iAn_kZOKSKMiU8ketqMo-4" value="&lt;font style=&quot;vertical-align: inherit;&quot;&gt;&lt;font style=&quot;vertical-align: inherit;&quot;&gt;Ретроспектива&lt;/font&gt;&lt;/font&gt;" style="whiteSpace=wrap;html=1;rounded=1;glass=0;strokeWidth=1;shadow=0;fillColor=#0050ef;strokeColor=#001DBC;fillStyle=auto;fontColor=#ffffff;" parent="WIyWlLk6GJQsqaUBKTNV-1" vertex="1">
          <mxGeometry x="160" y="680" width="120" height="60" as="geometry" />
        </mxCell>
        <mxCell id="iAn_kZOKSKMiU8ketqMo-6" value="&lt;font style=&quot;vertical-align: inherit;&quot;&gt;&lt;font style=&quot;vertical-align: inherit;&quot;&gt;Аналіз&lt;/font&gt;&lt;/font&gt;&lt;div&gt;&lt;font style=&quot;vertical-align: inherit;&quot;&gt;&lt;font style=&quot;vertical-align: inherit;&quot;&gt;&lt;font style=&quot;vertical-align: inherit;&quot;&gt;&lt;font style=&quot;vertical-align: inherit;&quot;&gt;роботи команди та виявлення шляхів для покращення&lt;/font&gt;&lt;/font&gt;&lt;/font&gt;&lt;/font&gt;&lt;/div&gt;" style="whiteSpace=wrap;html=1;rounded=1;glass=0;strokeWidth=1;shadow=0;fillColor=#0050ef;fontColor=#ffffff;strokeColor=#001DBC;" parent="WIyWlLk6GJQsqaUBKTNV-1" vertex="1">
          <mxGeometry x="360" y="680" width="120" height="60" as="geometry" />
        </mxCell>
        <mxCell id="iAn_kZOKSKMiU8ketqMo-8" value="&lt;font style=&quot;vertical-align: inherit;&quot;&gt;&lt;font style=&quot;vertical-align: inherit;&quot;&gt;демонстрація завершеної роботи замовнику&lt;/font&gt;&lt;/font&gt;" style="whiteSpace=wrap;html=1;rounded=1;glass=0;strokeWidth=1;shadow=0;fillColor=#0050ef;fontColor=#ffffff;strokeColor=#001DBC;" parent="WIyWlLk6GJQsqaUBKTNV-1" vertex="1">
          <mxGeometry x="360" y="540" width="120" height="60" as="geometry" />
        </mxCell>
        <mxCell id="iAn_kZOKSKMiU8ketqMo-10" value="&lt;font style=&quot;vertical-align: inherit;&quot;&gt;&lt;font style=&quot;vertical-align: inherit;&quot;&gt;Розробка функціональності протягом 2-4 тижнів&lt;/font&gt;&lt;/font&gt;" style="whiteSpace=wrap;html=1;rounded=1;glass=0;strokeWidth=1;shadow=0;fillColor=#0050ef;fontColor=#ffffff;strokeColor=#001DBC;" parent="WIyWlLk6GJQsqaUBKTNV-1" vertex="1">
          <mxGeometry x="360" y="420" width="120" height="60" as="geometry" />
        </mxCell>
        <mxCell id="iAn_kZOKSKMiU8ketqMo-15" value="" style="edgeStyle=orthogonalEdgeStyle;rounded=0;orthogonalLoop=1;jettySize=auto;html=1;" parent="WIyWlLk6GJQsqaUBKTNV-1" source="iAn_kZOKSKMiU8ketqMo-12" target="iAn_kZOKSKMiU8ketqMo-14" edge="1">
          <mxGeometry relative="1" as="geometry" />
        </mxCell>
        <mxCell id="iAn_kZOKSKMiU8ketqMo-12" value="&lt;font style=&quot;vertical-align: inherit;&quot;&gt;&lt;font style=&quot;vertical-align: inherit;&quot;&gt;Можливість відсутності чіткої документації&lt;/font&gt;&lt;/font&gt;" style="whiteSpace=wrap;html=1;shadow=0;strokeWidth=1;spacing=6;spacingTop=-4;fillColor=#0050ef;fontColor=#ffffff;strokeColor=#001DBC;" parent="WIyWlLk6GJQsqaUBKTNV-1" vertex="1">
          <mxGeometry x="-20" y="320" width="120" height="60" as="geometry" />
        </mxCell>
        <mxCell id="iAn_kZOKSKMiU8ketqMo-17" value="" style="edgeStyle=orthogonalEdgeStyle;rounded=0;orthogonalLoop=1;jettySize=auto;html=1;" parent="WIyWlLk6GJQsqaUBKTNV-1" source="iAn_kZOKSKMiU8ketqMo-14" target="iAn_kZOKSKMiU8ketqMo-16" edge="1">
          <mxGeometry relative="1" as="geometry" />
        </mxCell>
        <mxCell id="iAn_kZOKSKMiU8ketqMo-14" value="&lt;font style=&quot;vertical-align: inherit;&quot;&gt;&lt;font style=&quot;vertical-align: inherit;&quot;&gt;Складність у підтримці стабільності проекту&lt;/font&gt;&lt;/font&gt;" style="whiteSpace=wrap;html=1;shadow=0;strokeWidth=1;spacing=6;spacingTop=-4;fillColor=#0050ef;fontColor=#ffffff;strokeColor=#001DBC;" parent="WIyWlLk6GJQsqaUBKTNV-1" vertex="1">
          <mxGeometry x="-20" y="460" width="120" height="60" as="geometry" />
        </mxCell>
        <mxCell id="iAn_kZOKSKMiU8ketqMo-16" value="&lt;font style=&quot;vertical-align: inherit;&quot;&gt;&lt;font style=&quot;vertical-align: inherit;&quot;&gt;Залежність від комунікації між членами проекту&lt;/font&gt;&lt;/font&gt;" style="whiteSpace=wrap;html=1;shadow=0;strokeWidth=1;spacing=6;spacingTop=-4;fillColor=#0050ef;fontColor=#ffffff;strokeColor=#001DBC;" parent="WIyWlLk6GJQsqaUBKTNV-1" vertex="1">
          <mxGeometry x="-20" y="600" width="120" height="60" as="geometry" />
        </mxCell>
        <mxCell id="iAn_kZOKSKMiU8ketqMo-24" value="" style="edgeStyle=orthogonalEdgeStyle;rounded=0;orthogonalLoop=1;jettySize=auto;html=1;" parent="WIyWlLk6GJQsqaUBKTNV-1" source="iAn_kZOKSKMiU8ketqMo-21" target="iAn_kZOKSKMiU8ketqMo-23" edge="1">
          <mxGeometry relative="1" as="geometry" />
        </mxCell>
        <mxCell id="iAn_kZOKSKMiU8ketqMo-21" value="&lt;font style=&quot;vertical-align: inherit;&quot;&gt;&lt;font style=&quot;vertical-align: inherit;&quot;&gt;Переваги&lt;/font&gt;&lt;/font&gt;" style="whiteSpace=wrap;html=1;shadow=0;strokeWidth=1;spacing=6;spacingTop=-4;fillColor=#0050ef;fontColor=#ffffff;strokeColor=#001DBC;" parent="WIyWlLk6GJQsqaUBKTNV-1" vertex="1">
          <mxGeometry x="559" y="180" width="120" height="60" as="geometry" />
        </mxCell>
        <mxCell id="iAn_kZOKSKMiU8ketqMo-26" value="" style="edgeStyle=orthogonalEdgeStyle;rounded=0;orthogonalLoop=1;jettySize=auto;html=1;" parent="WIyWlLk6GJQsqaUBKTNV-1" source="iAn_kZOKSKMiU8ketqMo-23" target="iAn_kZOKSKMiU8ketqMo-25" edge="1">
          <mxGeometry relative="1" as="geometry" />
        </mxCell>
        <mxCell id="iAn_kZOKSKMiU8ketqMo-23" value="&lt;font style=&quot;vertical-align: inherit;&quot;&gt;&lt;font style=&quot;vertical-align: inherit;&quot;&gt;Висока гнучкість та адаптивність до змін&lt;/font&gt;&lt;/font&gt;" style="whiteSpace=wrap;html=1;shadow=0;strokeWidth=1;spacing=6;spacingTop=-4;fillColor=#0050ef;fontColor=#ffffff;strokeColor=#001DBC;" parent="WIyWlLk6GJQsqaUBKTNV-1" vertex="1">
          <mxGeometry x="546" y="320" width="120" height="60" as="geometry" />
        </mxCell>
        <mxCell id="iAn_kZOKSKMiU8ketqMo-28" value="" style="edgeStyle=orthogonalEdgeStyle;rounded=0;orthogonalLoop=1;jettySize=auto;html=1;" parent="WIyWlLk6GJQsqaUBKTNV-1" source="iAn_kZOKSKMiU8ketqMo-25" target="iAn_kZOKSKMiU8ketqMo-27" edge="1">
          <mxGeometry relative="1" as="geometry" />
        </mxCell>
        <mxCell id="iAn_kZOKSKMiU8ketqMo-25" value="&lt;font style=&quot;vertical-align: inherit;&quot;&gt;&lt;font style=&quot;vertical-align: inherit;&quot;&gt;постійна взаємодія з замовником&lt;/font&gt;&lt;/font&gt;" style="whiteSpace=wrap;html=1;shadow=0;strokeWidth=1;spacing=6;spacingTop=-4;fillColor=#0050ef;fontColor=#ffffff;strokeColor=#001DBC;" parent="WIyWlLk6GJQsqaUBKTNV-1" vertex="1">
          <mxGeometry x="546" y="460" width="120" height="60" as="geometry" />
        </mxCell>
        <mxCell id="iAn_kZOKSKMiU8ketqMo-27" value="&lt;font style=&quot;vertical-align: inherit;&quot;&gt;&lt;font style=&quot;vertical-align: inherit;&quot;&gt;Швидка доставка продукту&lt;/font&gt;&lt;/font&gt;" style="whiteSpace=wrap;html=1;shadow=0;strokeWidth=1;spacing=6;spacingTop=-4;fillColor=#0050ef;fontColor=#ffffff;strokeColor=#001DBC;" parent="WIyWlLk6GJQsqaUBKTNV-1" vertex="1">
          <mxGeometry x="546" y="600" width="120" height="60" as="geometry" />
        </mxCell>
        <mxCell id="iAn_kZOKSKMiU8ketqMo-31" value="" style="edgeStyle=orthogonalEdgeStyle;rounded=0;orthogonalLoop=1;jettySize=auto;html=1;" parent="WIyWlLk6GJQsqaUBKTNV-1" source="iAn_kZOKSKMiU8ketqMo-29" target="iAn_kZOKSKMiU8ketqMo-30" edge="1">
          <mxGeometry relative="1" as="geometry" />
        </mxCell>
        <mxCell id="iAn_kZOKSKMiU8ketqMo-39" value="" style="edgeStyle=orthogonalEdgeStyle;rounded=0;orthogonalLoop=1;jettySize=auto;html=1;" parent="WIyWlLk6GJQsqaUBKTNV-1" source="iAn_kZOKSKMiU8ketqMo-29" target="iAn_kZOKSKMiU8ketqMo-38" edge="1">
          <mxGeometry relative="1" as="geometry" />
        </mxCell>
        <mxCell id="LgwAgNWRiK_FED9tSkLz-1" value="" style="edgeStyle=orthogonalEdgeStyle;rounded=0;orthogonalLoop=1;jettySize=auto;html=1;" edge="1" parent="WIyWlLk6GJQsqaUBKTNV-1" source="iAn_kZOKSKMiU8ketqMo-29" target="LgwAgNWRiK_FED9tSkLz-0">
          <mxGeometry relative="1" as="geometry" />
        </mxCell>
        <mxCell id="iAn_kZOKSKMiU8ketqMo-29" value="&lt;font style=&quot;vertical-align: inherit;&quot;&gt;&lt;font style=&quot;vertical-align: inherit;&quot;&gt;Scrum&lt;/font&gt;&lt;/font&gt;" style="whiteSpace=wrap;html=1;fillColor=#60a917;fontColor=#ffffff;strokeColor=#2D7600;" parent="WIyWlLk6GJQsqaUBKTNV-1" vertex="1">
          <mxGeometry x="912" y="104" width="120" height="60" as="geometry" />
        </mxCell>
        <mxCell id="iAn_kZOKSKMiU8ketqMo-33" value="" style="edgeStyle=orthogonalEdgeStyle;rounded=0;orthogonalLoop=1;jettySize=auto;html=1;" parent="WIyWlLk6GJQsqaUBKTNV-1" source="iAn_kZOKSKMiU8ketqMo-30" target="iAn_kZOKSKMiU8ketqMo-32" edge="1">
          <mxGeometry relative="1" as="geometry" />
        </mxCell>
        <mxCell id="iAn_kZOKSKMiU8ketqMo-30" value="&lt;font style=&quot;vertical-align: inherit;&quot;&gt;&lt;font style=&quot;vertical-align: inherit;&quot;&gt;Недоліки&lt;/font&gt;&lt;/font&gt;" style="whiteSpace=wrap;html=1;fillColor=#0050ef;fontColor=#ffffff;strokeColor=#001DBC;" parent="WIyWlLk6GJQsqaUBKTNV-1" vertex="1">
          <mxGeometry x="712" y="181" width="120" height="60" as="geometry" />
        </mxCell>
        <mxCell id="iAn_kZOKSKMiU8ketqMo-35" value="" style="edgeStyle=orthogonalEdgeStyle;rounded=0;orthogonalLoop=1;jettySize=auto;html=1;" parent="WIyWlLk6GJQsqaUBKTNV-1" source="iAn_kZOKSKMiU8ketqMo-32" target="iAn_kZOKSKMiU8ketqMo-34" edge="1">
          <mxGeometry relative="1" as="geometry" />
        </mxCell>
        <mxCell id="iAn_kZOKSKMiU8ketqMo-32" value="&lt;font style=&quot;vertical-align: inherit;&quot;&gt;&lt;font style=&quot;vertical-align: inherit;&quot;&gt;потребує досвіду в пеалізації&lt;/font&gt;&lt;/font&gt;" style="whiteSpace=wrap;html=1;fillColor=#0050ef;fontColor=#ffffff;strokeColor=#001DBC;" parent="WIyWlLk6GJQsqaUBKTNV-1" vertex="1">
          <mxGeometry x="712" y="321" width="120" height="60" as="geometry" />
        </mxCell>
        <mxCell id="iAn_kZOKSKMiU8ketqMo-37" value="" style="edgeStyle=orthogonalEdgeStyle;rounded=0;orthogonalLoop=1;jettySize=auto;html=1;" parent="WIyWlLk6GJQsqaUBKTNV-1" source="iAn_kZOKSKMiU8ketqMo-34" target="iAn_kZOKSKMiU8ketqMo-36" edge="1">
          <mxGeometry relative="1" as="geometry" />
        </mxCell>
        <mxCell id="iAn_kZOKSKMiU8ketqMo-34" value="&lt;font style=&quot;vertical-align: inherit;&quot;&gt;&lt;font style=&quot;vertical-align: inherit;&quot;&gt;Можлива залежність від команди&lt;/font&gt;&lt;/font&gt;" style="whiteSpace=wrap;html=1;fillColor=#0050ef;fontColor=#ffffff;strokeColor=#001DBC;" parent="WIyWlLk6GJQsqaUBKTNV-1" vertex="1">
          <mxGeometry x="712" y="461" width="120" height="60" as="geometry" />
        </mxCell>
        <mxCell id="iAn_kZOKSKMiU8ketqMo-36" value="&lt;font style=&quot;vertical-align: inherit;&quot;&gt;&lt;font style=&quot;vertical-align: inherit;&quot;&gt;потребує активної участі всіх членів команди&lt;/font&gt;&lt;/font&gt;" style="whiteSpace=wrap;html=1;fillColor=#0050ef;fontColor=#ffffff;strokeColor=#001DBC;" parent="WIyWlLk6GJQsqaUBKTNV-1" vertex="1">
          <mxGeometry x="712" y="601" width="120" height="60" as="geometry" />
        </mxCell>
        <mxCell id="iAn_kZOKSKMiU8ketqMo-41" value="" style="edgeStyle=orthogonalEdgeStyle;rounded=0;orthogonalLoop=1;jettySize=auto;html=1;" parent="WIyWlLk6GJQsqaUBKTNV-1" source="iAn_kZOKSKMiU8ketqMo-38" target="iAn_kZOKSKMiU8ketqMo-40" edge="1">
          <mxGeometry relative="1" as="geometry" />
        </mxCell>
        <mxCell id="iAn_kZOKSKMiU8ketqMo-54" value="" style="edgeStyle=orthogonalEdgeStyle;rounded=0;orthogonalLoop=1;jettySize=auto;html=1;" parent="WIyWlLk6GJQsqaUBKTNV-1" source="iAn_kZOKSKMiU8ketqMo-38" target="iAn_kZOKSKMiU8ketqMo-53" edge="1">
          <mxGeometry relative="1" as="geometry" />
        </mxCell>
        <mxCell id="iAn_kZOKSKMiU8ketqMo-38" value="&lt;font style=&quot;vertical-align: inherit;&quot;&gt;&lt;font style=&quot;vertical-align: inherit;&quot;&gt;планування спринту&lt;/font&gt;&lt;/font&gt;" style="whiteSpace=wrap;html=1;fillColor=#0050ef;fontColor=#ffffff;strokeColor=#001DBC;" parent="WIyWlLk6GJQsqaUBKTNV-1" vertex="1">
          <mxGeometry x="912" y="321" width="120" height="60" as="geometry" />
        </mxCell>
        <mxCell id="iAn_kZOKSKMiU8ketqMo-43" value="" style="edgeStyle=orthogonalEdgeStyle;rounded=0;orthogonalLoop=1;jettySize=auto;html=1;" parent="WIyWlLk6GJQsqaUBKTNV-1" source="iAn_kZOKSKMiU8ketqMo-40" target="iAn_kZOKSKMiU8ketqMo-42" edge="1">
          <mxGeometry relative="1" as="geometry" />
        </mxCell>
        <mxCell id="iAn_kZOKSKMiU8ketqMo-52" value="" style="edgeStyle=orthogonalEdgeStyle;rounded=0;orthogonalLoop=1;jettySize=auto;html=1;" parent="WIyWlLk6GJQsqaUBKTNV-1" source="iAn_kZOKSKMiU8ketqMo-40" target="iAn_kZOKSKMiU8ketqMo-51" edge="1">
          <mxGeometry relative="1" as="geometry" />
        </mxCell>
        <mxCell id="iAn_kZOKSKMiU8ketqMo-40" value="&lt;font style=&quot;vertical-align: inherit;&quot;&gt;&lt;font style=&quot;vertical-align: inherit;&quot;&gt;Щоденні стендап зустрічі&lt;/font&gt;&lt;/font&gt;" style="whiteSpace=wrap;html=1;fillColor=#0050ef;fontColor=#ffffff;strokeColor=#001DBC;" parent="WIyWlLk6GJQsqaUBKTNV-1" vertex="1">
          <mxGeometry x="912" y="461" width="120" height="60" as="geometry" />
        </mxCell>
        <mxCell id="iAn_kZOKSKMiU8ketqMo-45" value="" style="edgeStyle=orthogonalEdgeStyle;rounded=0;orthogonalLoop=1;jettySize=auto;html=1;" parent="WIyWlLk6GJQsqaUBKTNV-1" source="iAn_kZOKSKMiU8ketqMo-42" target="iAn_kZOKSKMiU8ketqMo-44" edge="1">
          <mxGeometry relative="1" as="geometry" />
        </mxCell>
        <mxCell id="iAn_kZOKSKMiU8ketqMo-48" style="edgeStyle=orthogonalEdgeStyle;rounded=0;orthogonalLoop=1;jettySize=auto;html=1;" parent="WIyWlLk6GJQsqaUBKTNV-1" source="iAn_kZOKSKMiU8ketqMo-42" edge="1">
          <mxGeometry relative="1" as="geometry">
            <mxPoint x="1110" y="620" as="targetPoint" />
          </mxGeometry>
        </mxCell>
        <mxCell id="iAn_kZOKSKMiU8ketqMo-42" value="&lt;font style=&quot;vertical-align: inherit;&quot;&gt;&lt;font style=&quot;vertical-align: inherit;&quot;&gt;демонстрація&lt;/font&gt;&lt;/font&gt;" style="whiteSpace=wrap;html=1;fillColor=#0050ef;fontColor=#ffffff;strokeColor=#001DBC;" parent="WIyWlLk6GJQsqaUBKTNV-1" vertex="1">
          <mxGeometry x="912" y="601" width="120" height="60" as="geometry" />
        </mxCell>
        <mxCell id="iAn_kZOKSKMiU8ketqMo-47" value="" style="edgeStyle=orthogonalEdgeStyle;rounded=0;orthogonalLoop=1;jettySize=auto;html=1;" parent="WIyWlLk6GJQsqaUBKTNV-1" source="iAn_kZOKSKMiU8ketqMo-44" target="iAn_kZOKSKMiU8ketqMo-46" edge="1">
          <mxGeometry relative="1" as="geometry" />
        </mxCell>
        <mxCell id="iAn_kZOKSKMiU8ketqMo-44" value="&lt;font style=&quot;vertical-align: inherit;&quot;&gt;&lt;font style=&quot;vertical-align: inherit;&quot;&gt;Ретроспектива&lt;/font&gt;&lt;/font&gt;" style="whiteSpace=wrap;html=1;fillColor=#0050ef;fontColor=#ffffff;strokeColor=#001DBC;" parent="WIyWlLk6GJQsqaUBKTNV-1" vertex="1">
          <mxGeometry x="912" y="741" width="120" height="60" as="geometry" />
        </mxCell>
        <mxCell id="iAn_kZOKSKMiU8ketqMo-46" value="&lt;font style=&quot;vertical-align: inherit;&quot;&gt;&lt;font style=&quot;vertical-align: inherit;&quot;&gt;Аналіз процесу роботи команди&lt;/font&gt;&lt;/font&gt;" style="whiteSpace=wrap;html=1;fillColor=#0050ef;fontColor=#ffffff;strokeColor=#001DBC;" parent="WIyWlLk6GJQsqaUBKTNV-1" vertex="1">
          <mxGeometry x="1112" y="741" width="120" height="60" as="geometry" />
        </mxCell>
        <mxCell id="iAn_kZOKSKMiU8ketqMo-50" value="&lt;font style=&quot;vertical-align: inherit;&quot;&gt;&lt;font style=&quot;vertical-align: inherit;&quot;&gt;представлення головного функціоналу&lt;/font&gt;&lt;/font&gt;" style="whiteSpace=wrap;html=1;fillColor=#0050ef;fontColor=#ffffff;strokeColor=#001DBC;" parent="WIyWlLk6GJQsqaUBKTNV-1" vertex="1">
          <mxGeometry x="1110" y="590" width="120" height="60" as="geometry" />
        </mxCell>
        <mxCell id="iAn_kZOKSKMiU8ketqMo-51" value="&lt;font style=&quot;vertical-align: inherit;&quot;&gt;&lt;font style=&quot;vertical-align: inherit;&quot;&gt;обговорення прогресу та перешкод&lt;/font&gt;&lt;/font&gt;" style="whiteSpace=wrap;html=1;fillColor=#0050ef;fontColor=#ffffff;strokeColor=#001DBC;" parent="WIyWlLk6GJQsqaUBKTNV-1" vertex="1">
          <mxGeometry x="1112" y="461" width="120" height="60" as="geometry" />
        </mxCell>
        <mxCell id="iAn_kZOKSKMiU8ketqMo-53" value="&lt;font style=&quot;vertical-align: inherit;&quot;&gt;&lt;font style=&quot;vertical-align: inherit;&quot;&gt;Визначення завдань на цілий спринт&lt;/font&gt;&lt;/font&gt;" style="whiteSpace=wrap;html=1;fillColor=#0050ef;fontColor=#ffffff;strokeColor=#001DBC;" parent="WIyWlLk6GJQsqaUBKTNV-1" vertex="1">
          <mxGeometry x="1112" y="321" width="120" height="60" as="geometry" />
        </mxCell>
        <mxCell id="LgwAgNWRiK_FED9tSkLz-3" value="" style="edgeStyle=orthogonalEdgeStyle;rounded=0;orthogonalLoop=1;jettySize=auto;html=1;" edge="1" parent="WIyWlLk6GJQsqaUBKTNV-1" source="LgwAgNWRiK_FED9tSkLz-0" target="LgwAgNWRiK_FED9tSkLz-2">
          <mxGeometry relative="1" as="geometry" />
        </mxCell>
        <mxCell id="LgwAgNWRiK_FED9tSkLz-0" value="Переваги" style="whiteSpace=wrap;html=1;fillColor=#0050ef;fontColor=#ffffff;strokeColor=#001DBC;" vertex="1" parent="WIyWlLk6GJQsqaUBKTNV-1">
          <mxGeometry x="1358" y="181" width="120" height="60" as="geometry" />
        </mxCell>
        <mxCell id="LgwAgNWRiK_FED9tSkLz-5" value="" style="edgeStyle=orthogonalEdgeStyle;rounded=0;orthogonalLoop=1;jettySize=auto;html=1;" edge="1" parent="WIyWlLk6GJQsqaUBKTNV-1" source="LgwAgNWRiK_FED9tSkLz-2" target="LgwAgNWRiK_FED9tSkLz-4">
          <mxGeometry relative="1" as="geometry" />
        </mxCell>
        <mxCell id="LgwAgNWRiK_FED9tSkLz-2" value="Чітко визначенні ролі (Produkt Owner)" style="whiteSpace=wrap;html=1;fillColor=#0050ef;fontColor=#ffffff;strokeColor=#001DBC;" vertex="1" parent="WIyWlLk6GJQsqaUBKTNV-1">
          <mxGeometry x="1358" y="321" width="120" height="60" as="geometry" />
        </mxCell>
        <mxCell id="LgwAgNWRiK_FED9tSkLz-7" value="" style="edgeStyle=orthogonalEdgeStyle;rounded=0;orthogonalLoop=1;jettySize=auto;html=1;" edge="1" parent="WIyWlLk6GJQsqaUBKTNV-1" source="LgwAgNWRiK_FED9tSkLz-4" target="LgwAgNWRiK_FED9tSkLz-6">
          <mxGeometry relative="1" as="geometry" />
        </mxCell>
        <mxCell id="LgwAgNWRiK_FED9tSkLz-4" value="Зосередженість на результатах у короткі терміни" style="whiteSpace=wrap;html=1;fillColor=#0050ef;fontColor=#ffffff;strokeColor=#001DBC;" vertex="1" parent="WIyWlLk6GJQsqaUBKTNV-1">
          <mxGeometry x="1358" y="461" width="120" height="60" as="geometry" />
        </mxCell>
        <mxCell id="LgwAgNWRiK_FED9tSkLz-6" value="Постійна адаптація до змін" style="whiteSpace=wrap;html=1;fillColor=#0050ef;fontColor=#ffffff;strokeColor=#001DBC;" vertex="1" parent="WIyWlLk6GJQsqaUBKTNV-1">
          <mxGeometry x="1358" y="601" width="120" height="60" as="geometry" />
        </mxCell>
        <mxCell id="LgwAgNWRiK_FED9tSkLz-11" value="" style="edgeStyle=orthogonalEdgeStyle;rounded=0;orthogonalLoop=1;jettySize=auto;html=1;" edge="1" parent="WIyWlLk6GJQsqaUBKTNV-1" source="LgwAgNWRiK_FED9tSkLz-8" target="LgwAgNWRiK_FED9tSkLz-10">
          <mxGeometry relative="1" as="geometry" />
        </mxCell>
        <mxCell id="LgwAgNWRiK_FED9tSkLz-19" value="" style="edgeStyle=orthogonalEdgeStyle;rounded=0;orthogonalLoop=1;jettySize=auto;html=1;" edge="1" parent="WIyWlLk6GJQsqaUBKTNV-1" source="LgwAgNWRiK_FED9tSkLz-8" target="LgwAgNWRiK_FED9tSkLz-18">
          <mxGeometry relative="1" as="geometry" />
        </mxCell>
        <mxCell id="LgwAgNWRiK_FED9tSkLz-39" value="" style="edgeStyle=orthogonalEdgeStyle;rounded=0;orthogonalLoop=1;jettySize=auto;html=1;" edge="1" parent="WIyWlLk6GJQsqaUBKTNV-1" source="LgwAgNWRiK_FED9tSkLz-8" target="LgwAgNWRiK_FED9tSkLz-38">
          <mxGeometry relative="1" as="geometry" />
        </mxCell>
        <mxCell id="LgwAgNWRiK_FED9tSkLz-8" value="Waterfall (каскадна модель)" style="whiteSpace=wrap;html=1;rounded=1;glass=0;strokeWidth=1;shadow=0;fillColor=#60a917;fontColor=#ffffff;strokeColor=#2D7600;" vertex="1" parent="WIyWlLk6GJQsqaUBKTNV-1">
          <mxGeometry x="-530" y="150" width="120" height="60" as="geometry" />
        </mxCell>
        <mxCell id="LgwAgNWRiK_FED9tSkLz-13" value="" style="edgeStyle=orthogonalEdgeStyle;rounded=0;orthogonalLoop=1;jettySize=auto;html=1;" edge="1" parent="WIyWlLk6GJQsqaUBKTNV-1" source="LgwAgNWRiK_FED9tSkLz-10" target="LgwAgNWRiK_FED9tSkLz-12">
          <mxGeometry relative="1" as="geometry" />
        </mxCell>
        <mxCell id="LgwAgNWRiK_FED9tSkLz-10" value="Переваги" style="whiteSpace=wrap;html=1;rounded=1;glass=0;strokeWidth=1;shadow=0;fillColor=#0050ef;fontColor=#ffffff;strokeColor=#001DBC;" vertex="1" parent="WIyWlLk6GJQsqaUBKTNV-1">
          <mxGeometry x="-180" y="150" width="120" height="60" as="geometry" />
        </mxCell>
        <mxCell id="LgwAgNWRiK_FED9tSkLz-15" value="" style="edgeStyle=orthogonalEdgeStyle;rounded=0;orthogonalLoop=1;jettySize=auto;html=1;" edge="1" parent="WIyWlLk6GJQsqaUBKTNV-1" source="LgwAgNWRiK_FED9tSkLz-12" target="LgwAgNWRiK_FED9tSkLz-14">
          <mxGeometry relative="1" as="geometry" />
        </mxCell>
        <mxCell id="LgwAgNWRiK_FED9tSkLz-12" value="Чітка структура та документація" style="rounded=1;whiteSpace=wrap;html=1;glass=0;strokeWidth=1;shadow=0;fillColor=#0050ef;fontColor=#ffffff;strokeColor=#001DBC;" vertex="1" parent="WIyWlLk6GJQsqaUBKTNV-1">
          <mxGeometry x="-170" y="290" width="120" height="60" as="geometry" />
        </mxCell>
        <mxCell id="LgwAgNWRiK_FED9tSkLz-17" value="" style="edgeStyle=orthogonalEdgeStyle;rounded=0;orthogonalLoop=1;jettySize=auto;html=1;" edge="1" parent="WIyWlLk6GJQsqaUBKTNV-1" source="LgwAgNWRiK_FED9tSkLz-14" target="LgwAgNWRiK_FED9tSkLz-16">
          <mxGeometry relative="1" as="geometry" />
        </mxCell>
        <mxCell id="LgwAgNWRiK_FED9tSkLz-14" value="Легкість в управлінні та контролі прогресу" style="whiteSpace=wrap;html=1;rounded=1;glass=0;strokeWidth=1;shadow=0;fillColor=#0050ef;fontColor=#ffffff;strokeColor=#001DBC;" vertex="1" parent="WIyWlLk6GJQsqaUBKTNV-1">
          <mxGeometry x="-170" y="430" width="120" height="60" as="geometry" />
        </mxCell>
        <mxCell id="LgwAgNWRiK_FED9tSkLz-16" value="Підходить для проектів з визначеними вимогами" style="rounded=1;whiteSpace=wrap;html=1;glass=0;strokeWidth=1;shadow=0;fillColor=#0050ef;fontColor=#ffffff;strokeColor=#001DBC;" vertex="1" parent="WIyWlLk6GJQsqaUBKTNV-1">
          <mxGeometry x="-170" y="570" width="120" height="60" as="geometry" />
        </mxCell>
        <mxCell id="LgwAgNWRiK_FED9tSkLz-21" value="" style="edgeStyle=orthogonalEdgeStyle;rounded=0;orthogonalLoop=1;jettySize=auto;html=1;" edge="1" parent="WIyWlLk6GJQsqaUBKTNV-1" source="LgwAgNWRiK_FED9tSkLz-18" target="LgwAgNWRiK_FED9tSkLz-20">
          <mxGeometry relative="1" as="geometry" />
        </mxCell>
        <mxCell id="LgwAgNWRiK_FED9tSkLz-23" value="" style="edgeStyle=orthogonalEdgeStyle;rounded=0;orthogonalLoop=1;jettySize=auto;html=1;" edge="1" parent="WIyWlLk6GJQsqaUBKTNV-1" source="LgwAgNWRiK_FED9tSkLz-18" target="LgwAgNWRiK_FED9tSkLz-22">
          <mxGeometry relative="1" as="geometry" />
        </mxCell>
        <mxCell id="LgwAgNWRiK_FED9tSkLz-18" value="requirement analysis" style="rounded=1;whiteSpace=wrap;html=1;glass=0;strokeWidth=1;shadow=0;fillColor=#0050ef;fontColor=#ffffff;strokeColor=#001DBC;" vertex="1" parent="WIyWlLk6GJQsqaUBKTNV-1">
          <mxGeometry x="-530" y="290" width="120" height="60" as="geometry" />
        </mxCell>
        <mxCell id="LgwAgNWRiK_FED9tSkLz-20" value="Збір та документування вимог замовника" style="whiteSpace=wrap;html=1;rounded=1;glass=0;strokeWidth=1;shadow=0;fillColor=#0050ef;fontColor=#ffffff;strokeColor=#001DBC;" vertex="1" parent="WIyWlLk6GJQsqaUBKTNV-1">
          <mxGeometry x="-330" y="290" width="120" height="60" as="geometry" />
        </mxCell>
        <mxCell id="LgwAgNWRiK_FED9tSkLz-25" value="" style="edgeStyle=orthogonalEdgeStyle;rounded=0;orthogonalLoop=1;jettySize=auto;html=1;" edge="1" parent="WIyWlLk6GJQsqaUBKTNV-1" source="LgwAgNWRiK_FED9tSkLz-22" target="LgwAgNWRiK_FED9tSkLz-24">
          <mxGeometry relative="1" as="geometry" />
        </mxCell>
        <mxCell id="LgwAgNWRiK_FED9tSkLz-27" value="" style="edgeStyle=orthogonalEdgeStyle;rounded=0;orthogonalLoop=1;jettySize=auto;html=1;" edge="1" parent="WIyWlLk6GJQsqaUBKTNV-1" source="LgwAgNWRiK_FED9tSkLz-22" target="LgwAgNWRiK_FED9tSkLz-26">
          <mxGeometry relative="1" as="geometry" />
        </mxCell>
        <mxCell id="LgwAgNWRiK_FED9tSkLz-22" value="dyzayn" style="rounded=1;whiteSpace=wrap;html=1;glass=0;strokeWidth=1;shadow=0;fillColor=#0050ef;fontColor=#ffffff;strokeColor=#001DBC;" vertex="1" parent="WIyWlLk6GJQsqaUBKTNV-1">
          <mxGeometry x="-530" y="430" width="120" height="60" as="geometry" />
        </mxCell>
        <mxCell id="LgwAgNWRiK_FED9tSkLz-24" value="Розробка архітектури системи та її компонентів" style="whiteSpace=wrap;html=1;rounded=1;glass=0;strokeWidth=1;shadow=0;fillColor=#0050ef;fontColor=#ffffff;strokeColor=#001DBC;" vertex="1" parent="WIyWlLk6GJQsqaUBKTNV-1">
          <mxGeometry x="-330" y="430" width="120" height="60" as="geometry" />
        </mxCell>
        <mxCell id="LgwAgNWRiK_FED9tSkLz-29" value="" style="edgeStyle=orthogonalEdgeStyle;rounded=0;orthogonalLoop=1;jettySize=auto;html=1;" edge="1" parent="WIyWlLk6GJQsqaUBKTNV-1" source="LgwAgNWRiK_FED9tSkLz-26" target="LgwAgNWRiK_FED9tSkLz-28">
          <mxGeometry relative="1" as="geometry" />
        </mxCell>
        <mxCell id="LgwAgNWRiK_FED9tSkLz-31" value="" style="edgeStyle=orthogonalEdgeStyle;rounded=0;orthogonalLoop=1;jettySize=auto;html=1;" edge="1" parent="WIyWlLk6GJQsqaUBKTNV-1" source="LgwAgNWRiK_FED9tSkLz-26" target="LgwAgNWRiK_FED9tSkLz-30">
          <mxGeometry relative="1" as="geometry" />
        </mxCell>
        <mxCell id="LgwAgNWRiK_FED9tSkLz-26" value="realyzatsia" style="rounded=1;whiteSpace=wrap;html=1;glass=0;strokeWidth=1;shadow=0;fillColor=#0050ef;fontColor=#ffffff;strokeColor=#001DBC;" vertex="1" parent="WIyWlLk6GJQsqaUBKTNV-1">
          <mxGeometry x="-530" y="570" width="120" height="60" as="geometry" />
        </mxCell>
        <mxCell id="LgwAgNWRiK_FED9tSkLz-28" value="Написання коду та інтеграція компонентів" style="rounded=1;whiteSpace=wrap;html=1;glass=0;strokeWidth=1;shadow=0;fillColor=#0050ef;fontColor=#ffffff;strokeColor=#001DBC;" vertex="1" parent="WIyWlLk6GJQsqaUBKTNV-1">
          <mxGeometry x="-330" y="570" width="120" height="60" as="geometry" />
        </mxCell>
        <mxCell id="LgwAgNWRiK_FED9tSkLz-33" value="" style="edgeStyle=orthogonalEdgeStyle;rounded=0;orthogonalLoop=1;jettySize=auto;html=1;" edge="1" parent="WIyWlLk6GJQsqaUBKTNV-1" source="LgwAgNWRiK_FED9tSkLz-30" target="LgwAgNWRiK_FED9tSkLz-32">
          <mxGeometry relative="1" as="geometry" />
        </mxCell>
        <mxCell id="LgwAgNWRiK_FED9tSkLz-35" value="" style="edgeStyle=orthogonalEdgeStyle;rounded=0;orthogonalLoop=1;jettySize=auto;html=1;" edge="1" parent="WIyWlLk6GJQsqaUBKTNV-1" source="LgwAgNWRiK_FED9tSkLz-30" target="LgwAgNWRiK_FED9tSkLz-34">
          <mxGeometry relative="1" as="geometry" />
        </mxCell>
        <mxCell id="LgwAgNWRiK_FED9tSkLz-30" value="testing" style="rounded=1;whiteSpace=wrap;html=1;glass=0;strokeWidth=1;shadow=0;fillColor=#0050ef;fontColor=#ffffff;strokeColor=#001DBC;" vertex="1" parent="WIyWlLk6GJQsqaUBKTNV-1">
          <mxGeometry x="-530" y="710" width="120" height="60" as="geometry" />
        </mxCell>
        <mxCell id="LgwAgNWRiK_FED9tSkLz-32" value="Перевірка системи на помилки та відповідність вимогам" style="whiteSpace=wrap;html=1;rounded=1;glass=0;strokeWidth=1;shadow=0;fillColor=#0050ef;fontColor=#ffffff;strokeColor=#001DBC;" vertex="1" parent="WIyWlLk6GJQsqaUBKTNV-1">
          <mxGeometry x="-330" y="710" width="120" height="60" as="geometry" />
        </mxCell>
        <mxCell id="LgwAgNWRiK_FED9tSkLz-37" value="" style="edgeStyle=orthogonalEdgeStyle;rounded=0;orthogonalLoop=1;jettySize=auto;html=1;" edge="1" parent="WIyWlLk6GJQsqaUBKTNV-1" source="LgwAgNWRiK_FED9tSkLz-34" target="LgwAgNWRiK_FED9tSkLz-36">
          <mxGeometry relative="1" as="geometry" />
        </mxCell>
        <mxCell id="LgwAgNWRiK_FED9tSkLz-34" value="impelementation" style="rounded=1;whiteSpace=wrap;html=1;glass=0;strokeWidth=1;shadow=0;fillColor=#0050ef;fontColor=#ffffff;strokeColor=#001DBC;" vertex="1" parent="WIyWlLk6GJQsqaUBKTNV-1">
          <mxGeometry x="-530" y="850" width="120" height="60" as="geometry" />
        </mxCell>
        <mxCell id="LgwAgNWRiK_FED9tSkLz-36" value="Запуск системи в експлуатацію" style="whiteSpace=wrap;html=1;rounded=1;glass=0;strokeWidth=1;shadow=0;fillColor=#0050ef;fontColor=#ffffff;strokeColor=#001DBC;" vertex="1" parent="WIyWlLk6GJQsqaUBKTNV-1">
          <mxGeometry x="-330" y="850" width="120" height="60" as="geometry" />
        </mxCell>
        <mxCell id="LgwAgNWRiK_FED9tSkLz-41" value="" style="edgeStyle=orthogonalEdgeStyle;rounded=0;orthogonalLoop=1;jettySize=auto;html=1;" edge="1" parent="WIyWlLk6GJQsqaUBKTNV-1" source="LgwAgNWRiK_FED9tSkLz-38" target="LgwAgNWRiK_FED9tSkLz-40">
          <mxGeometry relative="1" as="geometry" />
        </mxCell>
        <mxCell id="LgwAgNWRiK_FED9tSkLz-38" value="Недоліки" style="rounded=1;whiteSpace=wrap;html=1;glass=0;strokeWidth=1;shadow=0;fillColor=#0050ef;fontColor=#ffffff;strokeColor=#001DBC;" vertex="1" parent="WIyWlLk6GJQsqaUBKTNV-1">
          <mxGeometry x="-790" y="210" width="120" height="60" as="geometry" />
        </mxCell>
        <mxCell id="LgwAgNWRiK_FED9tSkLz-43" value="" style="edgeStyle=orthogonalEdgeStyle;rounded=0;orthogonalLoop=1;jettySize=auto;html=1;" edge="1" parent="WIyWlLk6GJQsqaUBKTNV-1" source="LgwAgNWRiK_FED9tSkLz-40" target="LgwAgNWRiK_FED9tSkLz-42">
          <mxGeometry relative="1" as="geometry" />
        </mxCell>
        <mxCell id="LgwAgNWRiK_FED9tSkLz-40" value="Низька гнучкість у реагуванні на зміни" style="rounded=1;whiteSpace=wrap;html=1;glass=0;strokeWidth=1;shadow=0;fillColor=#0050ef;fontColor=#ffffff;strokeColor=#001DBC;" vertex="1" parent="WIyWlLk6GJQsqaUBKTNV-1">
          <mxGeometry x="-790" y="350" width="120" height="60" as="geometry" />
        </mxCell>
        <mxCell id="LgwAgNWRiK_FED9tSkLz-45" value="" style="edgeStyle=orthogonalEdgeStyle;rounded=0;orthogonalLoop=1;jettySize=auto;html=1;" edge="1" parent="WIyWlLk6GJQsqaUBKTNV-1" source="LgwAgNWRiK_FED9tSkLz-42" target="LgwAgNWRiK_FED9tSkLz-44">
          <mxGeometry relative="1" as="geometry" />
        </mxCell>
        <mxCell id="LgwAgNWRiK_FED9tSkLz-42" value="Можливість виявлення проблем лише на пізніх етапах" style="rounded=1;whiteSpace=wrap;html=1;glass=0;strokeWidth=1;shadow=0;fillColor=#0050ef;fontColor=#ffffff;strokeColor=#001DBC;" vertex="1" parent="WIyWlLk6GJQsqaUBKTNV-1">
          <mxGeometry x="-790" y="490" width="120" height="60" as="geometry" />
        </mxCell>
        <mxCell id="LgwAgNWRiK_FED9tSkLz-44" value="Не підходить для проектів з високим рівнем невизначеності" style="rounded=1;whiteSpace=wrap;html=1;glass=0;strokeWidth=1;shadow=0;fillColor=#0050ef;fontColor=#ffffff;strokeColor=#001DBC;" vertex="1" parent="WIyWlLk6GJQsqaUBKTNV-1">
          <mxGeometry x="-790" y="630" width="120" height="60" as="geometry" />
        </mxCell>
      </root>
    </mxGraphModel>
  </diagram>
</mxfile>
